<mxfile host="app.diagrams.net" agent="Mozilla/5.0 (Macintosh; Intel Mac OS X 10_15_7) AppleWebKit/537.36 (KHTML, like Gecko) Chrome/140.0.0.0 Safari/537.36" scale="1" border="0" version="28.2.5">
  <diagram name="Page-1" id="sDu0aeg5PjgMpL4gp_Bp">
    <mxGraphModel dx="3346" dy="1874" grid="1" gridSize="10" guides="1" tooltips="1" connect="1" arrows="1" fold="1" page="1" pageScale="1" pageWidth="827" pageHeight="1169" math="0" shadow="0">
      <root>
        <mxCell id="0" />
        <mxCell id="1" parent="0" />
        <mxCell id="dIc79d3IpgFr99bJo3Fr-3" value="" style="edgeStyle=orthogonalEdgeStyle;rounded=0;orthogonalLoop=1;jettySize=auto;html=1;" parent="1" source="dIc79d3IpgFr99bJo3Fr-1" target="dIc79d3IpgFr99bJo3Fr-2" edge="1">
          <mxGeometry relative="1" as="geometry" />
        </mxCell>
        <mxCell id="dIc79d3IpgFr99bJo3Fr-1" value="Start" style="strokeWidth=2;html=1;shape=mxgraph.flowchart.start_1;whiteSpace=wrap;" parent="1" vertex="1">
          <mxGeometry x="381" y="60" width="100" height="60" as="geometry" />
        </mxCell>
        <mxCell id="dIc79d3IpgFr99bJo3Fr-7" style="edgeStyle=orthogonalEdgeStyle;rounded=0;orthogonalLoop=1;jettySize=auto;html=1;exitX=0.5;exitY=1;exitDx=0;exitDy=0;entryX=0.5;entryY=0;entryDx=0;entryDy=0;" parent="1" source="dIc79d3IpgFr99bJo3Fr-2" target="dIc79d3IpgFr99bJo3Fr-6" edge="1">
          <mxGeometry relative="1" as="geometry" />
        </mxCell>
        <mxCell id="dIc79d3IpgFr99bJo3Fr-2" value="กำหนด n = 0" style="whiteSpace=wrap;html=1;strokeWidth=2;" parent="1" vertex="1">
          <mxGeometry x="371" y="150" width="120" height="60" as="geometry" />
        </mxCell>
        <mxCell id="dIc79d3IpgFr99bJo3Fr-50" style="edgeStyle=orthogonalEdgeStyle;rounded=0;orthogonalLoop=1;jettySize=auto;html=1;exitX=0.5;exitY=1;exitDx=0;exitDy=0;entryX=0.5;entryY=0;entryDx=0;entryDy=0;" parent="1" source="dIc79d3IpgFr99bJo3Fr-6" target="dIc79d3IpgFr99bJo3Fr-47" edge="1">
          <mxGeometry relative="1" as="geometry" />
        </mxCell>
        <mxCell id="dIc79d3IpgFr99bJo3Fr-6" value="แสดง Enter Value :" style="shape=parallelogram;perimeter=parallelogramPerimeter;whiteSpace=wrap;html=1;fixedSize=1;" parent="1" vertex="1">
          <mxGeometry x="338" y="250" width="186" height="60" as="geometry" />
        </mxCell>
        <mxCell id="dIc79d3IpgFr99bJo3Fr-18" value="" style="edgeStyle=orthogonalEdgeStyle;rounded=0;orthogonalLoop=1;jettySize=auto;html=1;entryX=0.5;entryY=0;entryDx=0;entryDy=0;exitX=1;exitY=0.5;exitDx=0;exitDy=0;" parent="1" source="dIc79d3IpgFr99bJo3Fr-9" target="dIc79d3IpgFr99bJo3Fr-67" edge="1">
          <mxGeometry relative="1" as="geometry">
            <mxPoint x="569" y="492" as="sourcePoint" />
            <Array as="points">
              <mxPoint x="669" y="500" />
            </Array>
          </mxGeometry>
        </mxCell>
        <mxCell id="dIc79d3IpgFr99bJo3Fr-51" value="T" style="edgeLabel;html=1;align=center;verticalAlign=middle;resizable=0;points=[];" parent="dIc79d3IpgFr99bJo3Fr-18" vertex="1" connectable="0">
          <mxGeometry x="-0.3043" relative="1" as="geometry">
            <mxPoint as="offset" />
          </mxGeometry>
        </mxCell>
        <mxCell id="dIc79d3IpgFr99bJo3Fr-35" style="edgeStyle=orthogonalEdgeStyle;rounded=0;orthogonalLoop=1;jettySize=auto;html=1;exitX=0;exitY=0.5;exitDx=0;exitDy=0;entryX=0.5;entryY=0;entryDx=0;entryDy=0;" parent="1" source="dIc79d3IpgFr99bJo3Fr-9" target="dIc79d3IpgFr99bJo3Fr-65" edge="1">
          <mxGeometry relative="1" as="geometry">
            <mxPoint x="87" y="500.5" as="targetPoint" />
          </mxGeometry>
        </mxCell>
        <mxCell id="dIc79d3IpgFr99bJo3Fr-52" value="F" style="edgeLabel;html=1;align=center;verticalAlign=middle;resizable=0;points=[];" parent="dIc79d3IpgFr99bJo3Fr-35" vertex="1" connectable="0">
          <mxGeometry x="-0.3444" y="4" relative="1" as="geometry">
            <mxPoint as="offset" />
          </mxGeometry>
        </mxCell>
        <mxCell id="dIc79d3IpgFr99bJo3Fr-9" value="หาร 2 แล้วลงตัว&lt;div&gt;n % 2!=0?&lt;/div&gt;" style="rhombus;whiteSpace=wrap;html=1;" parent="1" vertex="1">
          <mxGeometry x="338" y="460" width="186" height="80" as="geometry" />
        </mxCell>
        <mxCell id="dIc79d3IpgFr99bJo3Fr-20" value="" style="edgeStyle=orthogonalEdgeStyle;rounded=0;orthogonalLoop=1;jettySize=auto;html=1;" parent="1" source="dIc79d3IpgFr99bJo3Fr-17" target="dIc79d3IpgFr99bJo3Fr-19" edge="1">
          <mxGeometry relative="1" as="geometry" />
        </mxCell>
        <mxCell id="dIc79d3IpgFr99bJo3Fr-17" value="กำหนด i = 1" style="whiteSpace=wrap;html=1;" parent="1" vertex="1">
          <mxGeometry x="609" y="575" width="120" height="60" as="geometry" />
        </mxCell>
        <mxCell id="dIc79d3IpgFr99bJo3Fr-22" value="" style="edgeStyle=orthogonalEdgeStyle;rounded=0;orthogonalLoop=1;jettySize=auto;html=1;exitX=0.5;exitY=1;exitDx=0;exitDy=0;" parent="1" source="dIc79d3IpgFr99bJo3Fr-19" target="dIc79d3IpgFr99bJo3Fr-21" edge="1">
          <mxGeometry relative="1" as="geometry">
            <mxPoint x="743.9999999999998" y="845" as="sourcePoint" />
          </mxGeometry>
        </mxCell>
        <mxCell id="dIc79d3IpgFr99bJo3Fr-44" value="T" style="edgeLabel;html=1;align=center;verticalAlign=middle;resizable=0;points=[];" parent="dIc79d3IpgFr99bJo3Fr-22" vertex="1" connectable="0">
          <mxGeometry x="0.0333" y="2" relative="1" as="geometry">
            <mxPoint as="offset" />
          </mxGeometry>
        </mxCell>
        <mxCell id="dIc79d3IpgFr99bJo3Fr-61" style="edgeStyle=orthogonalEdgeStyle;rounded=0;orthogonalLoop=1;jettySize=auto;html=1;exitX=0;exitY=0.5;exitDx=0;exitDy=0;entryX=1;entryY=0;entryDx=0;entryDy=0;" parent="1" source="dIc79d3IpgFr99bJo3Fr-19" target="dIc79d3IpgFr99bJo3Fr-72" edge="1">
          <mxGeometry relative="1" as="geometry">
            <mxPoint x="542" y="848.5" as="targetPoint" />
            <Array as="points">
              <mxPoint x="699" y="740" />
              <mxPoint x="442" y="740" />
            </Array>
          </mxGeometry>
        </mxCell>
        <mxCell id="dIc79d3IpgFr99bJo3Fr-78" value="F" style="edgeLabel;html=1;align=center;verticalAlign=middle;resizable=0;points=[];" parent="dIc79d3IpgFr99bJo3Fr-61" vertex="1" connectable="0">
          <mxGeometry x="-0.6075" relative="1" as="geometry">
            <mxPoint as="offset" />
          </mxGeometry>
        </mxCell>
        <mxCell id="dIc79d3IpgFr99bJo3Fr-85" value="&lt;span style=&quot;white-space-collapse: preserve;&quot;&gt;F&lt;/span&gt;" style="edgeLabel;html=1;align=center;verticalAlign=middle;resizable=0;points=[];" parent="dIc79d3IpgFr99bJo3Fr-61" vertex="1" connectable="0">
          <mxGeometry x="-0.178" y="5" relative="1" as="geometry">
            <mxPoint x="1" as="offset" />
          </mxGeometry>
        </mxCell>
        <mxCell id="dIc79d3IpgFr99bJo3Fr-19" value="i &amp;lt;&lt;span style=&quot;white-space: pre;&quot;&gt;= n &lt;/span&gt;" style="rhombus;whiteSpace=wrap;html=1;" parent="1" vertex="1">
          <mxGeometry x="616.5" y="707" width="105" height="80" as="geometry" />
        </mxCell>
        <mxCell id="dIc79d3IpgFr99bJo3Fr-26" style="edgeStyle=orthogonalEdgeStyle;rounded=0;orthogonalLoop=1;jettySize=auto;html=1;exitX=0.5;exitY=1;exitDx=0;exitDy=0;entryX=0.5;entryY=0;entryDx=0;entryDy=0;" parent="1" source="dIc79d3IpgFr99bJo3Fr-21" edge="1">
          <mxGeometry relative="1" as="geometry">
            <mxPoint x="669" y="943" as="targetPoint" />
          </mxGeometry>
        </mxCell>
        <mxCell id="dIc79d3IpgFr99bJo3Fr-21" value="i +&lt;span style=&quot;white-space: pre;&quot;&gt;= 2&lt;/span&gt;" style="whiteSpace=wrap;html=1;" parent="1" vertex="1">
          <mxGeometry x="609" y="853" width="120" height="60" as="geometry" />
        </mxCell>
        <mxCell id="dIc79d3IpgFr99bJo3Fr-41" style="edgeStyle=orthogonalEdgeStyle;rounded=0;orthogonalLoop=1;jettySize=auto;html=1;exitX=1;exitY=0.5;exitDx=0;exitDy=0;entryX=1;entryY=0.5;entryDx=0;entryDy=0;" parent="1" target="dIc79d3IpgFr99bJo3Fr-67" edge="1">
          <mxGeometry relative="1" as="geometry">
            <mxPoint x="764" y="973" as="sourcePoint" />
            <mxPoint x="422.02081528018084" y="999.9791847198187" as="targetPoint" />
            <Array as="points">
              <mxPoint x="789" y="973" />
              <mxPoint x="789" y="539" />
            </Array>
          </mxGeometry>
        </mxCell>
        <mxCell id="dIc79d3IpgFr99bJo3Fr-25" value="&lt;div&gt;แสดง&lt;span style=&quot;white-space: pre;&quot;&gt;ค่า i แต่ละรอบ&lt;/span&gt;&lt;/div&gt;" style="shape=parallelogram;perimeter=parallelogramPerimeter;whiteSpace=wrap;html=1;fixedSize=1;" parent="1" vertex="1">
          <mxGeometry x="564" y="945.5" width="210" height="60" as="geometry" />
        </mxCell>
        <mxCell id="dIc79d3IpgFr99bJo3Fr-27" value="" style="edgeStyle=orthogonalEdgeStyle;rounded=0;orthogonalLoop=1;jettySize=auto;html=1;" parent="1" source="dIc79d3IpgFr99bJo3Fr-28" target="dIc79d3IpgFr99bJo3Fr-30" edge="1">
          <mxGeometry relative="1" as="geometry" />
        </mxCell>
        <mxCell id="dIc79d3IpgFr99bJo3Fr-28" value="กำหนด i = n" style="whiteSpace=wrap;html=1;" parent="1" vertex="1">
          <mxGeometry x="112" y="577.5" width="120" height="60" as="geometry" />
        </mxCell>
        <mxCell id="dIc79d3IpgFr99bJo3Fr-34" style="edgeStyle=orthogonalEdgeStyle;rounded=0;orthogonalLoop=1;jettySize=auto;html=1;exitX=0.5;exitY=1;exitDx=0;exitDy=0;entryX=0.5;entryY=0;entryDx=0;entryDy=0;" parent="1" source="dIc79d3IpgFr99bJo3Fr-30" target="dIc79d3IpgFr99bJo3Fr-32" edge="1">
          <mxGeometry relative="1" as="geometry" />
        </mxCell>
        <mxCell id="dIc79d3IpgFr99bJo3Fr-43" value="T" style="edgeLabel;html=1;align=center;verticalAlign=middle;resizable=0;points=[];" parent="dIc79d3IpgFr99bJo3Fr-34" vertex="1" connectable="0">
          <mxGeometry x="-0.3231" relative="1" as="geometry">
            <mxPoint as="offset" />
          </mxGeometry>
        </mxCell>
        <mxCell id="dIc79d3IpgFr99bJo3Fr-64" style="edgeStyle=orthogonalEdgeStyle;rounded=0;orthogonalLoop=1;jettySize=auto;html=1;exitX=1;exitY=0.5;exitDx=0;exitDy=0;entryX=0;entryY=0;entryDx=0;entryDy=0;" parent="1" source="dIc79d3IpgFr99bJo3Fr-30" target="dIc79d3IpgFr99bJo3Fr-72" edge="1">
          <mxGeometry relative="1" as="geometry">
            <mxPoint x="316" y="848.5" as="targetPoint" />
            <Array as="points">
              <mxPoint x="420" y="741" />
            </Array>
          </mxGeometry>
        </mxCell>
        <mxCell id="dIc79d3IpgFr99bJo3Fr-77" value="F" style="edgeLabel;html=1;align=center;verticalAlign=middle;resizable=0;points=[];" parent="dIc79d3IpgFr99bJo3Fr-64" vertex="1" connectable="0">
          <mxGeometry x="-0.4045" y="4" relative="1" as="geometry">
            <mxPoint as="offset" />
          </mxGeometry>
        </mxCell>
        <mxCell id="dIc79d3IpgFr99bJo3Fr-30" value="i &amp;nbsp;&amp;gt;= 0&lt;span style=&quot;white-space: pre;&quot;&gt; &lt;/span&gt;" style="rhombus;whiteSpace=wrap;html=1;" parent="1" vertex="1">
          <mxGeometry x="117" y="701.5" width="110" height="80" as="geometry" />
        </mxCell>
        <mxCell id="dIc79d3IpgFr99bJo3Fr-31" style="edgeStyle=orthogonalEdgeStyle;rounded=0;orthogonalLoop=1;jettySize=auto;html=1;exitX=0.5;exitY=1;exitDx=0;exitDy=0;entryX=0.5;entryY=0;entryDx=0;entryDy=0;" parent="1" source="dIc79d3IpgFr99bJo3Fr-32" target="dIc79d3IpgFr99bJo3Fr-33" edge="1">
          <mxGeometry relative="1" as="geometry" />
        </mxCell>
        <mxCell id="dIc79d3IpgFr99bJo3Fr-32" value="i -&lt;span style=&quot;white-space: pre;&quot;&gt;= 2&lt;/span&gt;" style="whiteSpace=wrap;html=1;" parent="1" vertex="1">
          <mxGeometry x="112" y="837.5" width="120" height="60" as="geometry" />
        </mxCell>
        <mxCell id="dIc79d3IpgFr99bJo3Fr-62" style="edgeStyle=orthogonalEdgeStyle;rounded=0;orthogonalLoop=1;jettySize=auto;html=1;exitX=0;exitY=0.5;exitDx=0;exitDy=0;entryX=0;entryY=0.5;entryDx=0;entryDy=0;" parent="1" source="dIc79d3IpgFr99bJo3Fr-33" target="dIc79d3IpgFr99bJo3Fr-65" edge="1">
          <mxGeometry relative="1" as="geometry">
            <Array as="points">
              <mxPoint x="77" y="969" />
              <mxPoint x="57" y="969" />
              <mxPoint x="57" y="535" />
              <mxPoint x="157" y="535" />
            </Array>
          </mxGeometry>
        </mxCell>
        <mxCell id="dIc79d3IpgFr99bJo3Fr-33" value="แสดง&lt;span style=&quot;white-space: pre;&quot;&gt;ค่า i แต่ละรอบ&lt;/span&gt;" style="shape=parallelogram;perimeter=parallelogramPerimeter;whiteSpace=wrap;html=1;fixedSize=1;" parent="1" vertex="1">
          <mxGeometry x="67" y="945.5" width="210" height="60" as="geometry" />
        </mxCell>
        <mxCell id="dIc79d3IpgFr99bJo3Fr-49" style="edgeStyle=orthogonalEdgeStyle;rounded=0;orthogonalLoop=1;jettySize=auto;html=1;exitX=0.5;exitY=1;exitDx=0;exitDy=0;entryX=0.5;entryY=0;entryDx=0;entryDy=0;" parent="1" source="dIc79d3IpgFr99bJo3Fr-47" target="dIc79d3IpgFr99bJo3Fr-9" edge="1">
          <mxGeometry relative="1" as="geometry" />
        </mxCell>
        <mxCell id="dIc79d3IpgFr99bJo3Fr-76" value="T" style="edgeLabel;html=1;align=center;verticalAlign=middle;resizable=0;points=[];" parent="dIc79d3IpgFr99bJo3Fr-49" vertex="1" connectable="0">
          <mxGeometry x="-0.3483" relative="1" as="geometry">
            <mxPoint as="offset" />
          </mxGeometry>
        </mxCell>
        <mxCell id="dIc79d3IpgFr99bJo3Fr-56" style="edgeStyle=orthogonalEdgeStyle;rounded=0;orthogonalLoop=1;jettySize=auto;html=1;exitX=0;exitY=0.5;exitDx=0;exitDy=0;entryX=1;entryY=0.5;entryDx=0;entryDy=0;" parent="1" source="dIc79d3IpgFr99bJo3Fr-47" target="dIc79d3IpgFr99bJo3Fr-53" edge="1">
          <mxGeometry relative="1" as="geometry">
            <mxPoint x="287" y="380" as="targetPoint" />
          </mxGeometry>
        </mxCell>
        <mxCell id="dIc79d3IpgFr99bJo3Fr-75" value="F" style="edgeLabel;html=1;align=center;verticalAlign=middle;resizable=0;points=[];" parent="dIc79d3IpgFr99bJo3Fr-56" vertex="1" connectable="0">
          <mxGeometry x="0.0429" y="2" relative="1" as="geometry">
            <mxPoint as="offset" />
          </mxGeometry>
        </mxCell>
        <mxCell id="dIc79d3IpgFr99bJo3Fr-47" value="รับค่าเป็นตัวเลข?" style="rhombus;whiteSpace=wrap;html=1;" parent="1" vertex="1">
          <mxGeometry x="338" y="340" width="185" height="80" as="geometry" />
        </mxCell>
        <mxCell id="dIc79d3IpgFr99bJo3Fr-57" style="edgeStyle=orthogonalEdgeStyle;rounded=0;orthogonalLoop=1;jettySize=auto;html=1;exitX=0;exitY=0.5;exitDx=0;exitDy=0;entryX=0;entryY=0.5;entryDx=0;entryDy=0;" parent="1" source="dIc79d3IpgFr99bJo3Fr-53" target="dIc79d3IpgFr99bJo3Fr-72" edge="1">
          <mxGeometry relative="1" as="geometry">
            <mxPoint x="387" y="1010.5" as="targetPoint" />
            <Array as="points">
              <mxPoint x="37" y="380" />
              <mxPoint x="37" y="1020" />
            </Array>
          </mxGeometry>
        </mxCell>
        <mxCell id="dIc79d3IpgFr99bJo3Fr-53" value="แสดงข้อความ &quot;กรุณากรอกตัวเลข&quot;" style="shape=parallelogram;perimeter=parallelogramPerimeter;whiteSpace=wrap;html=1;fixedSize=1;" parent="1" vertex="1">
          <mxGeometry x="67" y="350" width="200" height="60" as="geometry" />
        </mxCell>
        <mxCell id="dIc79d3IpgFr99bJo3Fr-58" value="End" style="strokeWidth=2;html=1;shape=mxgraph.flowchart.start_1;whiteSpace=wrap;" parent="1" vertex="1">
          <mxGeometry x="380.5" y="1086.5" width="100" height="60" as="geometry" />
        </mxCell>
        <mxCell id="dIc79d3IpgFr99bJo3Fr-59" style="edgeStyle=orthogonalEdgeStyle;rounded=0;orthogonalLoop=1;jettySize=auto;html=1;exitX=0.5;exitY=1;exitDx=0;exitDy=0;entryX=0.5;entryY=0;entryDx=0;entryDy=0;entryPerimeter=0;" parent="1" source="dIc79d3IpgFr99bJo3Fr-72" target="dIc79d3IpgFr99bJo3Fr-58" edge="1">
          <mxGeometry relative="1" as="geometry">
            <mxPoint x="430.5" y="1050.5" as="sourcePoint" />
          </mxGeometry>
        </mxCell>
        <mxCell id="dIc79d3IpgFr99bJo3Fr-66" style="edgeStyle=orthogonalEdgeStyle;rounded=0;orthogonalLoop=1;jettySize=auto;html=1;exitX=0.5;exitY=1;exitDx=0;exitDy=0;entryX=0.5;entryY=0;entryDx=0;entryDy=0;" parent="1" source="dIc79d3IpgFr99bJo3Fr-65" target="dIc79d3IpgFr99bJo3Fr-28" edge="1">
          <mxGeometry relative="1" as="geometry" />
        </mxCell>
        <mxCell id="dIc79d3IpgFr99bJo3Fr-65" value="" style="ellipse;whiteSpace=wrap;html=1;aspect=fixed;" parent="1" vertex="1">
          <mxGeometry x="157" y="526.5" width="30" height="30" as="geometry" />
        </mxCell>
        <mxCell id="dIc79d3IpgFr99bJo3Fr-68" style="edgeStyle=orthogonalEdgeStyle;rounded=0;orthogonalLoop=1;jettySize=auto;html=1;exitX=1;exitY=1;exitDx=0;exitDy=0;entryX=0.5;entryY=0;entryDx=0;entryDy=0;" parent="1" source="dIc79d3IpgFr99bJo3Fr-67" target="dIc79d3IpgFr99bJo3Fr-17" edge="1">
          <mxGeometry relative="1" as="geometry" />
        </mxCell>
        <mxCell id="dIc79d3IpgFr99bJo3Fr-69" value="" style="edgeStyle=orthogonalEdgeStyle;rounded=0;orthogonalLoop=1;jettySize=auto;html=1;" parent="1" source="dIc79d3IpgFr99bJo3Fr-67" target="dIc79d3IpgFr99bJo3Fr-17" edge="1">
          <mxGeometry relative="1" as="geometry" />
        </mxCell>
        <mxCell id="dIc79d3IpgFr99bJo3Fr-67" value="" style="ellipse;whiteSpace=wrap;html=1;aspect=fixed;" parent="1" vertex="1">
          <mxGeometry x="654" y="524" width="30" height="30" as="geometry" />
        </mxCell>
        <mxCell id="dIc79d3IpgFr99bJo3Fr-72" value="" style="ellipse;whiteSpace=wrap;html=1;aspect=fixed;" parent="1" vertex="1">
          <mxGeometry x="416" y="1005.5" width="30" height="30" as="geometry" />
        </mxCell>
        <mxCell id="dIc79d3IpgFr99bJo3Fr-79" value="Even" style="text;html=1;align=center;verticalAlign=middle;whiteSpace=wrap;rounded=0;" parent="1" vertex="1">
          <mxGeometry x="311" y="613" width="60" height="30" as="geometry" />
        </mxCell>
        <mxCell id="dIc79d3IpgFr99bJo3Fr-80" value="" style="strokeWidth=2;html=1;shape=mxgraph.flowchart.annotation_2;align=left;labelPosition=right;pointerEvents=1;" parent="1" vertex="1">
          <mxGeometry x="272" y="582" width="50" height="100" as="geometry" />
        </mxCell>
        <mxCell id="dIc79d3IpgFr99bJo3Fr-83" value="" style="strokeWidth=2;html=1;shape=mxgraph.flowchart.annotation_2;align=left;labelPosition=right;pointerEvents=1;rotation=-180;" parent="1" vertex="1">
          <mxGeometry x="536" y="580" width="50" height="100" as="geometry" />
        </mxCell>
        <mxCell id="dIc79d3IpgFr99bJo3Fr-84" value="Odd" style="text;html=1;align=center;verticalAlign=middle;whiteSpace=wrap;rounded=0;" parent="1" vertex="1">
          <mxGeometry x="481" y="613" width="60" height="30" as="geometry" />
        </mxCell>
      </root>
    </mxGraphModel>
  </diagram>
</mxfile>
